<svg width="22" height="22" viewBox="0 0 22 22" fill="none" xmlns="http://www.w3.org/2000/svg">
<path d="M0 10.626C0 4.30371 4.45605 0 10.8672 0C16.9609 0 21.1504 3.82129 21.1504 9.53418C21.1504 13.4443 19.208 15.9707 16.0215 15.9707C14.3838 15.9707 13.1904 15.2852 12.8096 14.0664H12.5811C12.0732 15.3359 11.083 16.0088 9.63574 16.0088C6.99512 16.0088 5.24316 13.8506 5.24316 10.6387C5.24316 7.54102 6.91895 5.48438 9.40723 5.48438C10.791 5.48438 11.8828 6.11914 12.3906 7.27441H12.6191V7.0459C12.6191 6.04297 13.165 5.48438 14.1299 5.48438C15.1074 5.48438 15.6406 6.04297 15.6406 7.0459V12.1113C15.6406 13.0127 16.0469 13.5459 16.7578 13.5459C17.8496 13.5459 18.5479 12.0732 18.5479 9.88965C18.5479 5.17969 15.4248 2.31055 10.8672 2.31055C5.97949 2.31055 2.61523 5.6875 2.61523 10.6895C2.61523 15.7295 6.09375 18.9033 11.4766 18.9033C12.2764 18.9033 12.8096 18.8398 13.3936 18.7383C13.6221 18.7129 13.8252 18.7002 14.041 18.7002C14.8408 18.7002 15.209 19.1064 15.209 19.7285C15.209 20.2871 14.9551 20.6172 14.3584 20.8457C13.6982 21.0996 12.6953 21.2266 11.1084 21.2266C4.51953 21.2266 0 17.0879 0 10.626ZM10.4736 13.3809C11.6416 13.3809 12.3525 12.3906 12.3525 10.7402C12.3525 9.10254 11.6289 8.09961 10.4736 8.09961C9.31836 8.09961 8.62012 9.08984 8.62012 10.7402C8.62012 12.4033 9.30566 13.3809 10.4736 13.3809Z" fill="#2D000A"/>
</svg>
